<svg width="37" height="37" viewBox="0 0 37 37" fill="none" xmlns="http://www.w3.org/2000/svg">
<g id="behance">
<path id="Vector" d="M11.9867 8.84009C12.8702 8.84009 13.6652 8.91659 14.3942 9.07259C15.1187 9.22709 15.7367 9.48209 16.2587 9.83459C16.7732 10.1871 17.1752 10.6551 17.4647 11.2431C17.7452 11.8236 17.8847 12.5496 17.8847 13.4076C17.8847 14.3376 17.6747 15.1146 17.2532 15.7341C16.8287 16.3551 16.2032 16.8636 15.3692 17.2566C16.5047 17.5851 17.3462 18.1596 17.9042 18.9756C18.4652 19.7991 18.7397 20.7846 18.7397 21.9396C18.7397 22.8771 18.5612 23.6826 18.2027 24.3591C17.8573 25.0255 17.3561 25.5987 16.7417 26.0301C16.1054 26.4732 15.3946 26.7984 14.6432 26.9901C13.8554 27.1969 13.0442 27.3007 12.2297 27.2991H3.28223V8.84009H11.9867ZM11.4602 16.2981C12.1802 16.2981 12.7772 16.1271 13.2482 15.7806C13.7162 15.4386 13.9427 14.8746 13.9427 14.1021C13.9427 13.6731 13.8662 13.3191 13.7162 13.0416C13.5701 12.7746 13.3538 12.5526 13.0907 12.3996C12.8154 12.2363 12.5115 12.1268 12.1952 12.0771C11.8505 12.0128 11.5004 11.9822 11.1497 11.9856H7.34723V16.2981H11.4602V16.2981ZM11.6867 24.1566C12.0872 24.1566 12.4682 24.1221 12.8267 24.0411C13.1882 23.9631 13.5092 23.8371 13.7822 23.6496C14.0552 23.4696 14.2802 23.2251 14.4422 22.9131C14.6057 22.6041 14.6852 22.2006 14.6852 21.7161C14.6852 20.7651 14.4167 20.0886 13.8857 19.6791C13.3532 19.2741 12.6392 19.0731 11.7647 19.0731H7.34723V24.1581H11.6867V24.1566ZM24.5342 24.0951C25.0847 24.6321 25.8782 24.9021 26.9102 24.9021C27.6497 24.9021 28.2887 24.7146 28.8272 24.3426C29.3582 23.9691 29.6822 23.5701 29.8067 23.1576H33.0392C32.5202 24.7656 31.7327 25.9146 30.6557 26.6061C29.5922 27.3006 28.2977 27.6456 26.7857 27.6456C25.7327 27.6456 24.7847 27.4761 23.9357 27.1401C23.1208 26.8227 22.3844 26.3325 21.7772 25.7031C21.1801 25.059 20.7184 24.3015 20.4197 23.4756C20.0914 22.5622 19.9288 21.5976 19.9397 20.6271C19.9397 19.6281 20.1062 18.6936 20.4332 17.8311C20.7436 16.9974 21.2203 16.2354 21.8342 15.5916C22.4417 14.9616 23.1617 14.4651 24.0002 14.1006C24.882 13.7298 25.8308 13.5449 26.7872 13.5576C27.9182 13.5576 28.9067 13.7766 29.7557 14.2176C30.579 14.6386 31.2929 15.2456 31.8407 15.9906C32.3852 16.7301 32.7737 17.5776 33.0152 18.5271C33.2567 19.4751 33.3407 20.4651 33.2717 21.5016H23.6252C23.6267 22.5576 23.9822 23.5581 24.5342 24.0951V24.0951ZM28.7522 17.0736C28.3157 16.5906 27.5777 16.3296 26.6747 16.3296C26.0882 16.3296 25.6037 16.4271 25.2137 16.6281C24.8571 16.8082 24.5408 17.0587 24.2837 17.3646C24.058 17.6423 23.8906 17.9627 23.7917 18.3066C23.7052 18.5934 23.6494 18.8885 23.6252 19.1871H29.5982C29.5112 18.2511 29.1902 17.5596 28.7522 17.0736V17.0736ZM22.8752 10.0791H30.3587V11.9016H22.8752V10.0791Z" fill="black"/>
</g>
</svg>
