<svg width="37" height="37" viewBox="0 0 37 37" fill="none" xmlns="http://www.w3.org/2000/svg">
<g id="dribbble">
<path id="Vector" d="M31.2722 10.7137C29.9633 8.44524 28.0795 6.56197 25.8107 5.25365C23.5112 3.91415 21.0017 3.24365 18.2822 3.24365C15.5627 3.24365 13.0532 3.91415 10.7522 5.25365C8.45273 6.59315 6.63173 8.41415 5.29223 10.7137C3.95273 13.0132 3.28223 15.5242 3.28223 18.2437C3.28223 20.9632 3.95123 23.4742 5.29223 25.7737C6.60071 28.0424 8.48461 29.9258 10.7537 31.2337C13.0532 32.5732 15.5627 33.2437 18.2822 33.2437C21.0017 33.2437 23.5112 32.5732 25.8122 31.2337C28.081 29.9253 29.9648 28.0421 31.2737 25.7737C32.6132 23.4742 33.2822 20.9632 33.2822 18.2437C33.2822 15.5242 32.6132 13.0132 31.2722 10.7137ZM18.2822 5.73365C21.2822 5.73365 23.9402 6.69365 26.2622 8.61215C24.8822 10.3732 22.8332 11.8222 20.1122 12.9622C18.6092 10.2427 16.9802 7.97165 15.2207 6.15215C16.2179 5.87643 17.2476 5.73567 18.2822 5.73365V5.73365ZM8.54723 10.4437C9.64408 9.05079 11.0319 7.91431 12.6137 7.11365C14.4317 8.91515 16.1012 11.1637 17.6237 13.8637C14.6237 14.7637 11.4527 15.2137 8.11223 15.2137C7.25273 15.2137 6.60323 15.1942 6.16223 15.1537C6.62194 13.4352 7.43415 11.8312 8.54723 10.4437V10.4437ZM5.77223 18.2437C5.77223 18.1627 5.77673 18.0637 5.78723 17.9437C5.79773 17.8237 5.80223 17.7247 5.80223 17.6437C6.18323 17.6647 6.76373 17.6737 7.54373 17.6737C11.5427 17.6737 15.2627 17.1232 18.7022 16.0237C18.9827 16.5832 19.2737 17.2132 19.5722 17.9137C17.5922 18.3532 15.5612 19.4227 13.4807 21.1237C11.4002 22.8247 9.88223 24.6142 8.92223 26.4937C6.82223 24.1132 5.77223 21.3637 5.77223 18.2437V18.2437ZM18.2822 30.7537C15.4412 30.7537 12.8912 29.8732 10.6307 28.1152C11.5322 26.3347 12.9167 24.6322 14.7872 23.0137C16.6562 21.3937 18.5117 20.3842 20.3522 19.9837C21.5132 23.1921 22.2985 26.5244 22.6922 29.9137C21.2865 30.4629 19.7914 30.7477 18.2822 30.7537V30.7537ZM28.9022 24.8137C27.9204 26.3955 26.5984 27.7385 25.0322 28.7452C24.6722 25.6252 23.9822 22.5847 22.9637 19.6237C24.3617 19.5247 25.6112 19.4737 26.7137 19.4737C27.9122 19.4737 29.2427 19.5247 30.7022 19.6237C30.5064 21.4684 29.8907 23.2438 28.9022 24.8137ZM27.0422 17.3137C25.3022 17.3137 23.6927 17.3842 22.2122 17.5237C21.8986 16.7028 21.5584 15.8924 21.1922 15.0937C24.2912 13.7347 26.4902 12.0847 27.7907 10.1437C29.5907 12.2647 30.5717 14.6842 30.7307 17.4037C29.5127 17.3437 28.2827 17.3137 27.0422 17.3137V17.3137Z" fill="black"/>
</g>
</svg>
