<svg width="37" height="37" viewBox="0 0 37 37" fill="none" xmlns="http://www.w3.org/2000/svg">
<g id="nstagram">
<g id="Vector">
<path d="M18.2807 11.3092C16.4411 11.3092 14.6769 12.04 13.3762 13.3407C12.0754 14.6415 11.3447 16.4057 11.3447 18.2452C11.3447 20.0848 12.0754 21.849 13.3762 23.1497C14.6769 24.4505 16.4411 25.1812 18.2807 25.1812C20.1202 25.1812 21.8844 24.4505 23.1852 23.1497C24.4859 21.849 25.2167 20.0848 25.2167 18.2452C25.2167 16.4057 24.4859 14.6415 23.1852 13.3407C21.8844 12.04 20.1202 11.3092 18.2807 11.3092ZM18.2807 22.7497C17.0856 22.7497 15.9395 22.275 15.0944 21.4299C14.2494 20.5849 13.7747 19.4388 13.7747 18.2437C13.7747 17.0487 14.2494 15.9025 15.0944 15.0575C15.9395 14.2125 17.0856 13.7377 18.2807 13.7377C19.4757 13.7377 20.6218 14.2125 21.4669 15.0575C22.3119 15.9025 22.7867 17.0487 22.7867 18.2437C22.7867 19.4388 22.3119 20.5849 21.4669 21.4299C20.6218 22.275 19.4757 22.7497 18.2807 22.7497Z" fill="black"/>
<path d="M25.4912 12.6712C26.3842 12.6712 27.1082 11.9473 27.1082 11.0542C27.1082 10.1612 26.3842 9.43722 25.4912 9.43722C24.5981 9.43722 23.8742 10.1612 23.8742 11.0542C23.8742 11.9473 24.5981 12.6712 25.4912 12.6712Z" fill="black"/>
<path d="M31.0817 9.41022C30.7344 8.51349 30.2038 7.69914 29.5237 7.01931C28.8436 6.33947 28.029 5.80913 27.1322 5.46222C26.0827 5.06826 24.9739 4.85523 23.8532 4.83222C22.4087 4.76922 21.9512 4.75122 18.2882 4.75122C14.6252 4.75122 14.1557 4.75122 12.7232 4.83222C11.6032 4.85406 10.4953 5.06712 9.44716 5.46222C8.55006 5.80872 7.7353 6.33893 7.05516 7.01881C6.37501 7.6987 5.8445 8.51326 5.49766 9.41022C5.10361 10.4596 4.89108 11.5685 4.86916 12.6892C4.80466 14.1322 4.78516 14.5897 4.78516 18.2542C4.78516 21.9172 4.78516 22.3837 4.86916 23.8192C4.89166 24.9412 5.10316 26.0482 5.49766 27.0997C5.84547 27.9964 6.3765 28.8106 7.05681 29.4904C7.73712 30.1702 8.55175 30.7006 9.44866 31.0477C10.4948 31.4575 11.6032 31.6858 12.7262 31.7227C14.1707 31.7857 14.6282 31.8052 18.2912 31.8052C21.9542 31.8052 22.4237 31.8052 23.8562 31.7227C24.9768 31.6999 26.0855 31.4874 27.1352 31.0942C28.0318 30.7465 28.8461 30.2157 29.5261 29.5357C30.2061 28.8557 30.7369 28.0414 31.0847 27.1447C31.4792 26.0947 31.6907 24.9877 31.7132 23.8657C31.7777 22.4227 31.7972 21.9652 31.7972 18.3007C31.7972 14.6362 31.7972 14.1712 31.7132 12.7357C31.6957 11.5991 31.4821 10.4741 31.0817 9.41022ZM29.2547 23.7082C29.245 24.5727 29.0872 25.4291 28.7882 26.2402C28.5629 26.8235 28.218 27.3532 27.7758 27.7952C27.3335 28.2373 26.8036 28.5818 26.2202 28.8067C25.418 29.1044 24.5707 29.2622 23.7152 29.2732C22.2902 29.3392 21.8882 29.3557 18.2342 29.3557C14.5772 29.3557 14.2037 29.3557 12.7517 29.2732C11.8965 29.2628 11.0496 29.1049 10.2482 28.8067C9.66269 28.5832 9.13066 28.2393 8.68649 27.7972C8.24232 27.3551 7.89591 26.8246 7.66966 26.2402C7.37483 25.4378 7.21712 24.5915 7.20316 23.7367C7.13866 22.3117 7.12366 21.9097 7.12366 18.2557C7.12366 14.6002 7.12366 14.2267 7.20316 12.7732C7.21285 11.9093 7.37064 11.0533 7.66966 10.2427C8.12716 9.05922 9.06466 8.12772 10.2482 7.67472C11.05 7.37793 11.8967 7.22017 12.7517 7.20822C14.1782 7.14372 14.5787 7.12572 18.2342 7.12572C21.8897 7.12572 22.2647 7.12572 23.7152 7.20822C24.5708 7.21851 25.4182 7.37633 26.2202 7.67472C26.8036 7.90013 27.3334 8.24502 27.7756 8.68727C28.2179 9.12951 28.5627 9.65933 28.7882 10.2427C29.083 11.0451 29.2407 11.8915 29.2547 12.7462C29.3192 14.1727 29.3357 14.5732 29.3357 18.2287C29.3357 21.8827 29.3357 22.2757 29.2712 23.7097H29.2547V23.7082Z" fill="black"/>
</g>
</g>
</svg>
